# xmcd
#
# Track frame offsets:
#	150
#	15376
#	38019
#	59854
#	74904
#	97817
#	117167
#	130115
#	147464
#	165272
#	178252
#	194681
#
# Disc length: 2831 seconds
# Revision: 0
# Processed by: cddbd v1.5.2PL0 Copyright (c) Steve Scherf et al.
# Submitted via: dBpowerAMP V12.0
#
DISCID=af0b0d0c
DTITLE=Various Artist - Tony Cini's Blues Explosion Volume 1
DYEAR=2010
DGENRE=Blues
TTITLE0=Cass Eager - Take These Wings
TTITLE1=Harmonica Ron Ind - Since I Met You Baby
TTITLE2=19-Twenty - Bucket Of Poison
TTITLE3=G. Nunan Band - Our World
TTITLE4=Gail Page - Tonight
TTITLE5=Ginhouse Bluesband - Hoochie Coochie Man
TTITLE6=Jay Howie - Cry
TTITLE7=Scratch - Otherside
TTITLE8=The Bluetongue Blues Band - Over To You
TTITLE9=The Boogiemen - Hideaway
TTITLE10=Kim Churchill - It's The System
TTITLE11=CHristina Crofts - Midnight Train
EXTD=
EXTT0=
EXTT1=
EXTT2=
EXTT3=
EXTT4=
EXTT5=
EXTT6=
EXTT7=
EXTT8=
EXTT9=
EXTT10=
EXTT11=
PLAYORDER=
